<?xml version="1.0" encoding="UTF-8" standalone="no"?>
<!-- Created with Inkscape (http://www.inkscape.org/) -->

<svg
   width="1024"
   height="1024"
   viewBox="0 0 1024 1024"
   id="svg2"
   version="1.1"
   inkscape:version="1.4.3 (0d15f75, 2025-12-25)"
   sodipodi:docname="VL-2.svg"
   inkscape:export-filename="G:\SOEN 390 Floorplans\VL-2.png"
   inkscape:export-xdpi="90"
   inkscape:export-ydpi="90"
   xmlns:inkscape="http://www.inkscape.org/namespaces/inkscape"
   xmlns:sodipodi="http://sodipodi.sourceforge.net/DTD/sodipodi-0.dtd"
   xmlns="http://www.w3.org/2000/svg"
   xmlns:svg="http://www.w3.org/2000/svg"
   xmlns:rdf="http://www.w3.org/1999/02/22-rdf-syntax-ns#"
   xmlns:cc="http://creativecommons.org/ns#"
   xmlns:dc="http://purl.org/dc/elements/1.1/">
  <defs
     id="defs4" />
  <sodipodi:namedview
     id="base"
     pagecolor="#ffffff"
     bordercolor="#666666"
     borderopacity="1.0"
     inkscape:pageopacity="0.0"
     inkscape:pageshadow="2"
     inkscape:zoom="0.5"
     inkscape:cx="371"
     inkscape:cy="469"
     inkscape:document-units="px"
     inkscape:current-layer="g4801"
     showgrid="false"
     inkscape:snap-page="false"
     units="px"
     inkscape:object-paths="true"
     inkscape:snap-intersection-paths="true"
     inkscape:object-nodes="true"
     inkscape:snap-bbox="false"
     inkscape:window-width="1440"
     inkscape:window-height="872"
     inkscape:window-x="0"
     inkscape:window-y="28"
     inkscape:window-maximized="0"
     inkscape:snap-nodes="true"
     inkscape:snap-others="false"
     inkscape:showpageshadow="2"
     inkscape:pagecheckerboard="0"
     inkscape:deskcolor="#d1d1d1" />
  <metadata
     id="metadata7">
    <rdf:RDF>
      <cc:Work
         rdf:about="">
        <dc:format>image/svg+xml</dc:format>
        <dc:type
           rdf:resource="http://purl.org/dc/dcmitype/StillImage" />
        <dc:title />
      </cc:Work>
    </rdf:RDF>
  </metadata>
  <g
     inkscape:groupmode="layer"
     id="g4801"
     inkscape:label="VL2 vec copy"
     style="display:inline">
    <path
       style="fill:none;fill-opacity:1;stroke:#000000;stroke-width:2;stroke-miterlimit:4;stroke-dasharray:none;stroke-opacity:1"
       d="m 208.0918,17.888672 0,101.826168 -19.51953,0 0,51.42774 17.14257,0 0,161.42969 -18.57226,0 0,48.57031 12.85742,0 0,75.71484 -45.71484,0 0,55.71485 -51.42774,0 0,55.71289 -48.572264,0 0,61.42968 -22.857422,0 0,227.14258 28.572266,0 0,67.14258 -30,0 0,41.42773 325.71484,0 0,-41.42773 0,-67.14258 0,-51.05078 37.23438,0 0,20.20313 437.39648,0 21.43946,0 0,-259.86719 83.92968,0 12.5,0 27.5,0 0,-40.71485 -27.5,0 0,-174.64257 -12.5,0 0,-5.35743 -72.14257,0 0,-253.570308 -16.42969,0 0,30.714848 -16.79688,0 0,-104.683598 -474.63086,0 -147.62304,0 z"
       id="path4803"
       inkscape:connector-curvature="0" />
    <rect
       style="fill:none;fill-opacity:1;stroke:#000000;stroke-width:2;stroke-miterlimit:4;stroke-dasharray:none;stroke-opacity:1"
       id="rect4805"
       width="68.571426"
       height="41.427731"
       x="30"
       y="924" />
    <path
       inkscape:connector-curvature="0"
       id="path4807"
       d="m 764.64258,724.35742 0,28.41602 28.32617,0 0,73.23633 58.81641,0 0,-92.9336 -58.81446,0 0,-8.71875 -28.32812,0 z"
       style="fill:none;fill-opacity:1;stroke:#000000;stroke-width:2;stroke-miterlimit:4;stroke-dasharray:none;stroke-opacity:1" />
    <path
       style="fill:none;fill-opacity:1;stroke:#000000;stroke-width:2;stroke-miterlimit:4;stroke-dasharray:none;stroke-opacity:1"
       d="m 792.85742,623.28516 0,54.23242 33.44727,0 0,55.55859 25.48047,0 0,-55.55859 0,-54.23242 -58.92774,0 z"
       id="path4809"
       inkscape:connector-curvature="0" />
    <rect
       style="fill:none;fill-opacity:1;stroke:#000000;stroke-width:2;stroke-miterlimit:4;stroke-dasharray:none;stroke-opacity:1"
       id="rect4811"
       width="33.447269"
       height="27.779291"
       x="792.85742"
       y="677.51758" />
    <rect
       style="fill:none;fill-opacity:1;stroke:#000000;stroke-width:2;stroke-miterlimit:4;stroke-dasharray:none;stroke-opacity:1"
       id="rect4813"
       width="40.112305"
       height="73.23571"
       x="752.85742"
       y="752.77405" />
    <path
       style="fill:none;fill-opacity:1;stroke:#000000;stroke-width:2;stroke-miterlimit:4;stroke-dasharray:none;stroke-opacity:1"
       d="m 661.14453,264.87109 0,17.17188 -18.6875,0 0,52.78125 65.1543,0 0,-69.95313 -46.4668,0 z"
       id="path4815"
       inkscape:connector-curvature="0" />
    <path
       style="fill:none;fill-opacity:1;stroke:#000000;stroke-width:2;stroke-miterlimit:4;stroke-dasharray:none;stroke-opacity:1"
       d="m 642.45703,194.16016 0,50.00195 18.6875,0 0,20.70898 46.4668,0 0,-70.71093 -65.1543,0 z"
       id="path4817"
       inkscape:connector-curvature="0" />
    <rect
       style="fill:none;fill-opacity:1;stroke:#000000;stroke-width:2;stroke-miterlimit:4;stroke-dasharray:none;stroke-opacity:1"
       id="rect4819"
       width="18.6875"
       height="37.880859"
       x="642.45703"
       y="244.16211" />
    <rect
       style="fill:none;fill-opacity:1;stroke:#000000;stroke-width:2;stroke-miterlimit:4;stroke-dasharray:none;stroke-opacity:1"
       id="rect4821"
       width="48.487312"
       height="26.76952"
       x="642.45703"
       y="167.39064" />
    <rect
       style="fill:none;fill-opacity:1;stroke:#000000;stroke-width:2;stroke-miterlimit:4;stroke-dasharray:none;stroke-opacity:1"
       id="rect4823"
       width="47.25222"
       height="151.42857"
       x="543.46204"
       y="176.5" />
    <rect
       style="fill:none;fill-opacity:1;stroke:#000000;stroke-width:2;stroke-miterlimit:4;stroke-dasharray:none;stroke-opacity:1"
       id="rect4825"
       width="52.772881"
       height="105.71429"
       x="242.94141"
       y="364.71429" />
    <path
       style="fill:none;fill-opacity:1;stroke:#000000;stroke-width:2;stroke-miterlimit:4;stroke-dasharray:none;stroke-opacity:1"
       d="m 200,386.85742 0,70 -45.71484,0 0,55.71485 45.71484,0 42.94141,0 0,-125.71485 -42.94141,0 z"
       id="path4827"
       inkscape:connector-curvature="0" />
    <rect
       style="fill:none;fill-opacity:1;stroke:#000000;stroke-width:2;stroke-miterlimit:4;stroke-dasharray:none;stroke-opacity:1"
       id="rect4829"
       width="38.298561"
       height="32.142056"
       x="204.64287"
       y="512.57227" />
    <rect
       style="fill:none;fill-opacity:1;stroke:#000000;stroke-width:2;stroke-miterlimit:4;stroke-dasharray:none;stroke-opacity:1"
       id="rect4831"
       width="52.857143"
       height="35.71463"
       x="31.427734"
       y="821.14288" />
    <path
       style="fill:none;fill-opacity:1;stroke:#000000;stroke-width:2;stroke-miterlimit:4;stroke-dasharray:none;stroke-opacity:1"
       d="m 187.14258,332.57227 0,48.57031 12.85742,0 0,5.71484 5.71484,0 0,-5.71484 0,-48.57031 -18.57226,0 z"
       id="path4833"
       inkscape:connector-curvature="0" />
    <path
       style="fill:none;fill-opacity:1;stroke:#000000;stroke-width:2;stroke-miterlimit:4;stroke-dasharray:none;stroke-opacity:1"
       d="m 242.94141,364.71429 -37.22657,0"
       id="path4835"
       inkscape:connector-curvature="0" />
    <path
       style="fill:none;fill-opacity:1;stroke:#000000;stroke-width:2;stroke-miterlimit:4;stroke-dasharray:none;stroke-opacity:1"
       d="m 792.85714,463.87042 0,102.27216"
       id="path4837"
       inkscape:connector-curvature="0" />
    <path
       sodipodi:nodetypes="ccccc"
       inkscape:connector-curvature="0"
       id="path4839"
       d="m 543.46204,327.92857 0,6.78572 -302.03347,0 0,-22.85714 -35.71373,0"
       style="fill:none;fill-opacity:1;stroke:#000000;stroke-width:2;stroke-miterlimit:4;stroke-dasharray:none;stroke-opacity:1" />
    <path
       inkscape:connector-curvature="0"
       id="path4841"
       d="m 543.46204,176.5 0,-14.53892 98.99499,0 0,5.42956"
       style="fill:none;fill-opacity:1;stroke:#000000;stroke-width:2;stroke-miterlimit:4;stroke-dasharray:none;stroke-opacity:1" />
    <path
       inkscape:connector-curvature="0"
       id="path4843"
       d="m 717.9668,360.83398 0,34.22071 9.34375,0 0,68.8164 65.54687,0 0,-103.03711 -65.54687,0 -9.34375,0 z"
       style="fill:none;fill-opacity:1;stroke:#000000;stroke-width:2;stroke-miterlimit:4;stroke-dasharray:none;stroke-opacity:1" />
    <path
       inkscape:connector-curvature="0"
       id="path4845"
       d="m 682.10547,360.83398 0,34.22071 0,1.13476 0,54.80078 45.20508,0 0,-55.93554 -9.34375,0 0,-34.22071 -35.86133,0 z"
       style="fill:none;fill-opacity:1;stroke:#000000;stroke-width:2;stroke-miterlimit:4;stroke-dasharray:none;stroke-opacity:1" />
    <rect
       y="360.83398"
       x="645.99255"
       height="48.235657"
       width="36.11298"
       id="rect4847"
       style="fill:none;fill-opacity:1;stroke:#000000;stroke-width:2;stroke-miterlimit:4;stroke-dasharray:none;stroke-opacity:1" />
    <rect
       y="409.06964"
       x="645.99255"
       height="49.244961"
       width="36.113007"
       id="rect4849"
       style="fill:none;fill-opacity:1;stroke:#000000;stroke-width:2;stroke-miterlimit:4;stroke-dasharray:none;stroke-opacity:1" />
    <rect
       y="458.31461"
       x="645.99255"
       height="48.739838"
       width="49.24493"
       id="rect4851"
       style="fill:none;fill-opacity:1;stroke:#000000;stroke-width:2;stroke-miterlimit:4;stroke-dasharray:none;stroke-opacity:1" />
    <path
       inkscape:connector-curvature="0"
       id="path4853"
       d="m 695.23828,450.99023 0,12.88086 0,33.08203 0,10.10157 -49.24609,0 0,83.73047 0,16.62695 c 0,32.73483 26.35306,59.08789 59.08789,59.08789 l 14.20508,0 14.48437,0 59.08789,0 0,-59.08789 0,-16.62695 0,-24.64258 0,-59.08789 0,-43.1836 -65.54687,0 0,-12.88086 -32.07227,0 z"
       style="fill:none;fill-opacity:1;stroke:#000000;stroke-width:2;stroke-miterlimit:4;stroke-dasharray:none;stroke-opacity:1" />
    <rect
       y="615.42859"
       x="771.78571"
       height="51.071426"
       width="21.071711"
       id="rect4855"
       style="fill:none;fill-opacity:1;stroke:#000000;stroke-width:2;stroke-miterlimit:4;stroke-dasharray:none;stroke-opacity:1" />
    <rect
       y="705.29688"
       x="792.9707"
       height="27.779301"
       width="33.333988"
       id="rect4857"
       style="fill:none;fill-opacity:1;stroke:#000000;stroke-width:2;stroke-miterlimit:4;stroke-dasharray:none;stroke-opacity:1" />
    <path
       inkscape:connector-curvature="0"
       id="path4859"
       d="m 707.61133,334.82422 67.68074,0 0,26.00976"
       style="fill:none;fill-opacity:1;stroke:#000000;stroke-width:2;stroke-miterlimit:4;stroke-dasharray:none;stroke-opacity:1" />
    <path
       inkscape:connector-curvature="0"
       id="path4861"
       d="m 762.16016,164.86523 0,169.95899 65.66015,0 0,-20.45703 24.74805,0 0,-131.31836 -24.74805,0 0,-18.1836 -65.66015,0 z"
       style="fill:none;fill-opacity:1;stroke:#000000;stroke-width:2;stroke-miterlimit:4;stroke-dasharray:none;stroke-opacity:1" />
    <ellipse
       style="fill:none;fill-opacity:1;stroke:#000000;stroke-width:0"
       id="path1"
       cx="271.19589"
       cy="446.99088"
       rx="9.6472845"
       ry="11.791126"
       inkscape:label="VL-201" />
    <circle
       style="fill:none;fill-opacity:1;stroke:#000000;stroke-width:0"
       id="path2"
       cx="231.53484"
       cy="488.79578"
       r="8.5753641"
       inkscape:label="VL-202" />
    <ellipse
       style="fill:none;fill-opacity:1;stroke:#000000;stroke-width:0"
       id="path3"
       cx="572.40558"
       cy="310.85696"
       rx="10.719206"
       ry="8.5753641"
       inkscape:label="VL-203" />
    <ellipse
       style="fill:none;fill-opacity:1;stroke:#000000;stroke-width:0"
       id="path4"
       cx="657.08728"
       cy="315.14465"
       rx="13.934967"
       ry="10.719206"
       inkscape:label="VL-204" />
    <ellipse
       style="fill:none;fill-opacity:1;stroke:#000000;stroke-width:0"
       id="path5"
       cx="649.58386"
       cy="211.16835"
       rx="4.2876821"
       ry="9.6472845"
       inkscape:label="VL-205" />
    <ellipse
       style="fill:none;fill-opacity:1;stroke:#000000;stroke-width:0"
       id="path6"
       cx="807.15619"
       cy="315.14465"
       rx="11.791126"
       ry="12.863047"
       inkscape:label="VL-206" />
    <circle
       style="fill:none;fill-opacity:1;stroke:#000000;stroke-width:0"
       id="path7"
       cx="233.67868"
       cy="529.52875"
       r="8.5753641"
       inkscape:label="VL-207" />
    <ellipse
       style="fill:none;fill-opacity:1;stroke:#000000;stroke-width:0"
       id="path8"
       cx="654.94342"
       cy="369.81259"
       rx="11.791126"
       ry="9.6472845"
       inkscape:label="VL-208" />
    <circle
       style="fill:none;fill-opacity:1;stroke:#000000;stroke-width:0"
       id="path9"
       cx="654.94342"
       cy="436.27167"
       r="9.6472845"
       inkscape:label="VL-209" />
    <ellipse
       style="fill:none;fill-opacity:1;stroke:#000000;stroke-width:0"
       id="path10"
       cx="656.01538"
       cy="485.58002"
       rx="10.719206"
       ry="9.6472845"
       inkscape:label="VL-210" />
    <ellipse
       style="fill:none;fill-opacity:1;stroke:#000000;stroke-width:0"
       id="path11"
       cx="732.1217"
       cy="375.17218"
       rx="9.6472845"
       ry="10.719206"
       inkscape:label="VL-211" />
    <ellipse
       style="fill:none;fill-opacity:1;stroke:#000000;stroke-width:0"
       id="path12"
       cx="70.746758"
       cy="838.24188"
       rx="8.5753641"
       ry="4.2876821"
       inkscape:label="VL-212" />
    <ellipse
       style="fill:none;fill-opacity:1;stroke:#000000;stroke-width:0"
       id="path13"
       cx="79.322121"
       cy="947.57776"
       rx="12.863047"
       ry="8.5753641"
       inkscape:label="VL-213" />
    <ellipse
       style="fill:none;fill-opacity:1;stroke:#000000;stroke-width:0"
       id="path14"
       cx="778.21429"
       cy="737.48132"
       rx="8.5753641"
       ry="6.4315233"
       inkscape:label="VL-214" />
    <ellipse
       style="fill:none;fill-opacity:1;stroke:#000000;stroke-width:0"
       id="path15"
       cx="756.77588"
       cy="783.57391"
       rx="6.4315233"
       ry="7.5034437"
       inkscape:label="VL-215" />
    <ellipse
       style="fill:none;fill-opacity:1;stroke:#000000;stroke-width:0"
       id="path16"
       cx="802.86847"
       cy="687.10107"
       rx="9.6472845"
       ry="5.3596029"
       inkscape:label="VL-216" />
    <circle
       style="fill:none;fill-opacity:1;stroke:#000000;stroke-width:0"
       id="path17"
       cx="798.58081"
       cy="717.11487"
       r="7.5034437"
       inkscape:label="VL-217" />
    <ellipse
       style="fill:none;fill-opacity:1;stroke:#000000;stroke-width:0"
       id="path18"
       cx="616.35431"
       cy="203.6649"
       rx="16.078808"
       ry="15.006887"
       inkscape:label="AllowedPath1" />
    <ellipse
       style="fill:none;fill-opacity:1;stroke:#000000;stroke-width:0"
       id="path19"
       cx="619.57007"
       cy="335.51114"
       rx="10.719206"
       ry="11.791126"
       inkscape:label="AllowedPath2" />
    <ellipse
       style="fill:none;fill-opacity:1;stroke:#000000;stroke-width:0"
       id="path20"
       cx="733.19366"
       cy="349.44611"
       rx="15.006887"
       ry="8.5753641"
       inkscape:label="AllowedPath3" />
    <ellipse
       style="fill:none;fill-opacity:1;stroke:#000000;stroke-width:0"
       id="path21"
       cx="249.75749"
       cy="348.37418"
       rx="13.934967"
       ry="9.6472845"
       inkscape:label="AllowedPath4" />
    <circle
       style="fill:none;fill-opacity:1;stroke:#000000;stroke-width:0"
       id="path22"
       cx="475.93271"
       cy="353.73376"
       r="15.006887"
       inkscape:label="AllowedPath5" />
    <ellipse
       style="fill:none;fill-opacity:1;stroke:#000000;stroke-width:0"
       id="path23"
       cx="823.23499"
       cy="352.66187"
       rx="17.150728"
       ry="11.791126"
       inkscape:label="AllowedPath6" />
    <ellipse
       style="fill:none;fill-opacity:1;stroke:#000000;stroke-width:0"
       id="path24"
       cx="828.5946"
       cy="461.99774"
       rx="13.934967"
       ry="16.078808"
       inkscape:label="AllowedPath7" />
    <ellipse
       style="fill:none;fill-opacity:1;stroke:#000000;stroke-width:0"
       id="path25"
       cx="827.52264"
       cy="552.03906"
       rx="15.006887"
       ry="18.222649"
       inkscape:label="AllowedPath8" />
    <ellipse
       style="fill:none;fill-opacity:1;stroke:#000000;stroke-width:0"
       id="path26"
       cx="331.22345"
       cy="354.80569"
       rx="16.078808"
       ry="18.222649"
       inkscape:label="AllowedPath9" />
    <ellipse
       style="fill:none;fill-opacity:1;stroke:#000000;stroke-width:0"
       id="path27"
       cx="340.87073"
       cy="452.35046"
       rx="17.150728"
       ry="19.294569"
       inkscape:label="AllowedPath10" />
    <ellipse
       style="fill:none;fill-opacity:1;stroke:#000000;stroke-width:0"
       id="path28"
       cx="345.15842"
       cy="503.80264"
       rx="10.719206"
       ry="17.150728"
       inkscape:label="AllowedPath11" />
    <ellipse
       style="fill:none;fill-opacity:1;stroke:#000000;stroke-width:0"
       id="path29"
       cx="278.69934"
       cy="517.73761"
       rx="15.006887"
       ry="13.934967"
       inkscape:label="AllowedPath12" />
    <ellipse
       style="fill:none;fill-opacity:1;stroke:#000000;stroke-width:0"
       id="path30"
       cx="293.70624"
       cy="818.94727"
       rx="19.294569"
       ry="21.438412"
       inkscape:label="AllowedPath13" />
    <ellipse
       style="fill:none;fill-opacity:1;stroke:#000000;stroke-width:0"
       id="path31"
       cx="116.83934"
       cy="840.38568"
       rx="16.078808"
       ry="15.006887"
       inkscape:label="AllowedPath14" />
    <ellipse
       style="fill:none;fill-opacity:1;stroke:#000000;stroke-width:0"
       id="path32"
       cx="130.77431"
       cy="944.362"
       rx="15.006887"
       ry="16.078808"
       inkscape:label="AllowedPath15" />
    <ellipse
       style="fill:none;fill-opacity:1;stroke:#000000;stroke-width:0"
       id="path33"
       cx="623.85773"
       cy="465.2135"
       rx="8.5753641"
       ry="15.006887"
       inkscape:label="AllowedPath16" />
    <circle
       style="fill:none;fill-opacity:1;stroke:#000000;stroke-width:0"
       id="path34"
       cx="631.36121"
       cy="631.36121"
       r="11.791126"
       inkscape:label="AllowedPath17" />
    <ellipse
       style="fill:none;fill-opacity:1;stroke:#000000;stroke-width:0"
       id="path35"
       cx="642.08038"
       cy="712.82715"
       rx="11.791126"
       ry="16.078808"
       inkscape:label="AllowedPath18" />
    <ellipse
       style="fill:none;fill-opacity:1;stroke:#000000;stroke-width:0"
       id="path36"
       cx="736.40942"
       cy="720.33063"
       rx="11.791126"
       ry="12.863047"
       inkscape:label="AllowedPath19" />
    <ellipse
       style="fill:none;fill-opacity:1;stroke:#000000;stroke-width:0"
       id="path37"
       cx="728.90594"
       cy="796.43695"
       rx="10.719206"
       ry="11.791126"
       inkscape:label="AllowedPath20" />
    <ellipse
       style="fill:none;fill-opacity:1;stroke:#000000;stroke-width:0"
       id="path38"
       cx="429"
       cy="747"
       rx="18.799999"
       ry="25"
       inkscape:label="AllowedPath21" />
  </g>
</svg>
